<svg xmlns="http://www.w3.org/2000/svg" viewBox="0 0 32 32">
  <defs>
    <clipPath id="fl"><rect width="16" height="32"/></clipPath>
    <clipPath id="fr"><rect x="16" width="16" height="32"/></clipPath>
    <g id="fa">
      <line x1="16" y1="16" x2="16" y2="2"/>
      <line x1="16" y1="7" x2="12" y2="3"/>
      <line x1="16" y1="7" x2="20" y2="3"/>
      <line x1="16" y1="11" x2="13" y2="8"/>
      <line x1="16" y1="11" x2="19" y2="8"/>
    </g>
  </defs>
  <g clip-path="url(#fl)" stroke="#4db8f0" stroke-width="2" stroke-linecap="round" fill="none">
    <use href="#fa"/>
    <use href="#fa" transform="rotate(60,16,16)"/>
    <use href="#fa" transform="rotate(120,16,16)"/>
    <use href="#fa" transform="rotate(180,16,16)"/>
    <use href="#fa" transform="rotate(240,16,16)"/>
    <use href="#fa" transform="rotate(300,16,16)"/>
    <circle cx="16" cy="16" r="2" fill="#4db8f0" stroke="none"/>
  </g>
  <g clip-path="url(#fr)" fill="#1060a0">
    <rect x="15" y="2" width="2" height="5" rx="1" transform="rotate(0,16,16)"/>
    <rect x="15" y="2" width="2" height="5" rx="1" transform="rotate(30,16,16)"/>
    <rect x="15" y="2" width="2" height="5" rx="1" transform="rotate(60,16,16)"/>
    <rect x="15" y="2" width="2" height="5" rx="1" transform="rotate(90,16,16)"/>
    <rect x="15" y="2" width="2" height="5" rx="1" transform="rotate(120,16,16)"/>
    <rect x="15" y="2" width="2" height="5" rx="1" transform="rotate(150,16,16)"/>
    <rect x="15" y="2" width="2" height="5" rx="1" transform="rotate(180,16,16)"/>
    <rect x="15" y="2" width="2" height="5" rx="1" transform="rotate(210,16,16)"/>
    <rect x="15" y="2" width="2" height="5" rx="1" transform="rotate(240,16,16)"/>
    <rect x="15" y="2" width="2" height="5" rx="1" transform="rotate(270,16,16)"/>
    <rect x="15" y="2" width="2" height="5" rx="1" transform="rotate(300,16,16)"/>
    <rect x="15" y="2" width="2" height="5" rx="1" transform="rotate(330,16,16)"/>
    <circle cx="16" cy="16" r="11"/>
    <rect x="15.25" y="5" width="1.5" height="7" rx=".75"/>
    <rect x="15.25" y="5" width="1.5" height="7" rx=".75" transform="rotate(120,16,16)"/>
    <rect x="15.25" y="5" width="1.5" height="7" rx=".75" transform="rotate(240,16,16)"/>
    <circle cx="16" cy="16" r="4" fill="white"/>
  </g>
</svg>
